<svg width="30" height="30" viewBox="0 0 30 30" fill="none" xmlns="http://www.w3.org/2000/svg">
<g clip-path="url(#clip0_9_20)">
<path d="M0.393066 23.7256L1.70654 22.4121C1.74072 22.3779 1.77734 22.3462 1.81396 22.3145L0.871582 21.3721C0.856934 21.3574 0.844727 21.3428 0.83252 21.3281C0.598145 21.0718 0.480957 20.7471 0.480957 20.4248C0.480957 20.083 0.612793 19.7412 0.874023 19.48L2.1875 18.1665C2.22168 18.1323 2.2583 18.1006 2.29492 18.0688L1.35254 17.1265C1.09131 16.8652 0.961914 16.521 0.961914 16.1792C0.961914 15.8374 1.09375 15.4956 1.35254 15.2344L2.66602 13.9209C2.92725 13.6597 3.27148 13.5303 3.61328 13.5303C3.95752 13.5303 4.29932 13.6597 4.56055 13.9209L16.0864 25.4468C16.3477 25.708 16.4771 26.0522 16.4771 26.394C16.4771 26.7383 16.3477 27.0801 16.0864 27.3413L14.7729 28.6548C14.7583 28.6694 14.7437 28.6816 14.729 28.6938C14.4727 28.9282 14.1479 29.0454 13.8257 29.0454C13.4839 29.0454 13.1421 28.9136 12.8809 28.6548L12.0825 27.8564C12.0532 27.8931 12.0215 27.9297 11.9873 27.9639L10.6738 29.2773C10.6592 29.292 10.6445 29.3042 10.6299 29.3164C10.376 29.5483 10.0513 29.6655 9.72656 29.6655C9.38232 29.6655 9.04053 29.5361 8.78174 29.2749L7.69287 28.186C7.66357 28.2227 7.63184 28.2593 7.59521 28.2935L6.28174 29.6069C6.02051 29.8682 5.67627 29.9976 5.33447 29.9976C4.99268 29.9976 4.64844 29.8682 4.38721 29.6069L0.393066 25.6226C0.131836 25.3613 0 25.0171 0 24.6753C0 24.3311 0.131836 23.9893 0.393066 23.7256ZM16.0767 2.19238L14.7632 3.50586L14.751 3.51807C14.7314 3.54492 14.7217 3.57666 14.7217 3.6084C14.7217 3.64502 14.7363 3.68408 14.7632 3.71094L26.2891 15.2368C26.3159 15.2637 26.3525 15.2783 26.3916 15.2783C26.4282 15.2783 26.4673 15.2637 26.4941 15.2368L27.8076 13.9233L27.8198 13.9111C27.8394 13.8867 27.8491 13.8525 27.8491 13.8208C27.8491 13.7817 27.8369 13.7451 27.8101 13.7183L26.0693 11.9775L18.1665 4.07959L16.2817 2.19482C16.2549 2.16797 16.2183 2.15332 16.1792 2.15332C16.1401 2.15088 16.1035 2.16553 16.0767 2.19238ZM17.4487 11.5503C17.7759 11.2231 18.3081 11.2231 18.6377 11.5503C18.9648 11.8774 18.9648 12.4097 18.6377 12.7393L12.876 18.4961C12.5488 18.8232 12.0166 18.8232 11.687 18.4961C11.3599 18.1689 11.3599 17.6367 11.687 17.3071L17.4487 11.5503ZM24.5728 1.23779L23.2593 2.55127C23.23 2.58057 23.2153 2.61719 23.2153 2.65381C23.2153 2.68555 23.2251 2.71484 23.2446 2.7417L23.2593 2.75635L27.2437 6.74072L27.2559 6.75293C27.2803 6.77246 27.312 6.77979 27.3438 6.77979C27.3804 6.77979 27.4194 6.76514 27.4463 6.73828L28.7598 5.4248C28.7891 5.39551 28.8037 5.35889 28.8037 5.32227C28.8037 5.28564 28.7891 5.24658 28.7622 5.21973L24.7778 1.23779C24.751 1.21094 24.7144 1.19629 24.6753 1.19629C24.6362 1.19629 24.5996 1.21094 24.5728 1.23779ZM22.4146 1.7041L23.728 0.390625C23.9893 0.129395 24.3335 0 24.6753 0C25.0171 0 25.3613 0.129395 25.6226 0.390625L29.6069 4.375C29.8657 4.63379 29.9976 4.97803 29.9951 5.31982C29.9951 5.66406 29.8657 6.0083 29.6069 6.26709L28.2935 7.58057C28.2593 7.61475 28.2227 7.64648 28.186 7.67822L29.2749 8.76709C29.5361 9.02832 29.6655 9.37256 29.6655 9.71436C29.6655 10.0586 29.5337 10.4004 29.2749 10.6616L27.9614 11.9751C27.9272 12.0093 27.8906 12.041 27.854 12.0703L28.6523 12.8687C28.9136 13.1299 29.043 13.4717 29.043 13.8135C29.043 14.1382 28.9258 14.4629 28.6914 14.7168C28.6792 14.7314 28.667 14.7461 28.6523 14.7607L27.3389 16.0742C27.0776 16.3354 26.7334 16.4648 26.3916 16.4648C26.0474 16.4648 25.7056 16.333 25.4443 16.0742L13.9185 4.55566C13.6572 4.29443 13.5254 3.9502 13.5254 3.6084C13.5254 3.28369 13.6426 2.95898 13.877 2.70508C13.8892 2.69043 13.9014 2.67578 13.916 2.66113L15.2295 1.34766C15.4907 1.08643 15.8325 0.957031 16.1743 0.957031C16.5186 0.957031 16.8604 1.08887 17.1216 1.34766L18.064 2.29004C18.0933 2.25342 18.125 2.2168 18.1616 2.18262L19.4751 0.869141C19.7363 0.60791 20.0806 0.476074 20.4224 0.476074C20.7666 0.476074 21.1084 0.60791 21.3696 0.869141L22.312 1.81152C22.3486 1.7749 22.3804 1.73828 22.4146 1.7041ZM20.3247 1.71631L19.0112 3.02979C18.9844 3.05664 18.9697 3.09326 18.9697 3.13232C18.9697 3.16895 18.9819 3.20557 19.0088 3.23242L19.0112 3.23486L26.9116 11.1353C26.9385 11.1621 26.9751 11.1768 27.0142 11.1768C27.0532 11.1768 27.0898 11.1646 27.1167 11.1377L28.4302 9.82422C28.457 9.79736 28.4717 9.76074 28.4717 9.72168C28.4717 9.68506 28.457 9.646 28.4302 9.61914L26.4014 7.59033L20.5298 1.71631C20.5029 1.68945 20.4639 1.6748 20.4272 1.6748C20.3882 1.6748 20.3516 1.68701 20.3247 1.71631ZM4.07959 18.1665L11.98 26.0669L13.7158 27.8027C13.7427 27.8296 13.7817 27.8418 13.8184 27.8418C13.8501 27.8418 13.8818 27.832 13.9087 27.8125L13.9209 27.8003L15.2344 26.4868C15.2612 26.46 15.2759 26.4233 15.2759 26.3843C15.2759 26.3477 15.2612 26.3086 15.2344 26.2817L3.71094 14.7632C3.68408 14.7363 3.64746 14.7217 3.6084 14.7217C3.57178 14.7217 3.53271 14.7363 3.50586 14.7632L2.19238 16.0767C2.16553 16.1035 2.15332 16.1426 2.15332 16.1792C2.15332 16.2158 2.16797 16.2549 2.19482 16.2817L4.07959 18.1665ZM11.1475 26.9263L11.1353 26.9141L3.23242 19.0112L3.21777 18.9966C3.19092 18.9771 3.16162 18.9673 3.12988 18.9673C3.09326 18.9673 3.05664 18.9819 3.02734 19.0112L1.71387 20.3247C1.68701 20.3516 1.6748 20.3906 1.6748 20.4272C1.6748 20.459 1.68457 20.4907 1.7041 20.5176L1.71631 20.5298L3.60107 22.4146L7.58545 26.3989L9.6167 28.4302C9.646 28.4595 9.68262 28.4717 9.71924 28.4717C9.75098 28.4717 9.78271 28.4619 9.80957 28.4424L9.82178 28.4302L11.1353 27.1167C11.1621 27.0898 11.1743 27.0508 11.1743 27.0142C11.1743 26.9824 11.1646 26.9507 11.1475 26.9263ZM2.55127 23.2593L1.23779 24.5728C1.21094 24.5996 1.19629 24.6362 1.19629 24.6753C1.19629 24.7144 1.21094 24.751 1.23779 24.7778L5.22217 28.7622C5.24902 28.7891 5.28564 28.8037 5.32471 28.8037C5.36133 28.8037 5.40039 28.7891 5.42725 28.7622L6.74072 27.4487C6.76758 27.4219 6.78223 27.3853 6.78223 27.3462C6.78223 27.3071 6.76758 27.2705 6.74072 27.2437L2.75391 23.2593L2.75146 23.2568C2.72461 23.23 2.68799 23.2178 2.65137 23.2178C2.61475 23.2178 2.57812 23.2324 2.55127 23.2593Z" fill="#E3E3E3"/>
</g>
<defs>
<clipPath id="clip0_9_20">
<rect width="30" height="30" fill="white"/>
</clipPath>
</defs>
</svg>
